<svg class="svg-icon" style="width: 1em; height: 1em;vertical-align: middle;fill: currentColor;overflow: hidden;" viewBox="0 0 1024 1024" version="1.1" xmlns="http://www.w3.org/2000/svg"><path d="M872.107636 487.206617c0 60.007871-31.583791 112.64684-79.063401 142.229958 13.475355 32.530885 20.950742 68.220455 20.950742 105.593294 0 48.216808-12.31734 93.486873-34.109716 132.965843-18.423793 33.477978-53.796983 54.2178-92.117939 54.2178H402.673621l-0.315357-0.420817c13.580815-12.107444 21.792375-28.108724 21.792375-45.585422 0-2.947766-0.21092-5.895532-0.737197-8.737838l0.737197-0.10546h254.772362c24.951061 0 47.795991-14.318012 58.5345-36.847585 14.107092-29.477659 21.581455-62.008543 21.581455-95.486521 0-55.692194-20.634361-107.909322-56.428368-147.810134-17.475675-19.476347-38.637337-36.004927-62.745741-48.638648-41.479642-21.581455-67.272337-64.009215-67.272337-110.541731V246.542371h54.849536v92.117939c23.05585-12.001984 49.270386-18.844609 77.16819-18.844609 92.53978 0 167.4974 74.957621 167.4974 167.390916z m-126.123218 66.325243c22.108756-13.791735 36.847585-38.320956 36.847585-66.325243 0-43.163934-34.952373-78.221767-78.221767-78.221767-31.899147 0-59.271698 19.16099-71.483578 46.532516 6.316349 14.527909 17.475675 26.846273 32.110067 34.426096 30.846593 16.108788 58.21812 37.690243 80.747693 63.588398z" fill="#99E2FF" /><path d="M759.249876 735.030893c0 33.373542-7.474363 65.903403-21.581455 95.486521-10.843969 22.529573-33.583439 36.847585-58.5345 36.847585H424.36156l-0.947094 0.10546c-0.631737-3.684963-1.578831-7.264466-2.947766-10.843969 20.634361-6.738189 59.587054-24.424784 95.486521-68.956629 0 0-48.006911-14.423473-96.540099-3.474043 6.210888-21.371558 10.527589-50.112019 6.738189-85.379749 0 0-74.957621 40.216168-88.223079 108.751979-3.053226 0-6.000992 0.10546-8.948758 0.420817-8.1061-23.26677-12.31734-47.901451-12.31734-73.062409 0-54.007903 19.370886-104.75166 53.270706-144.23063h331.625194l1.263474-3.579503c35.794007 40.005247 56.428368 92.222375 56.428368 147.91457z" fill="#9AD14B" /><path d="M440.047483 830.518438c-14.107092-29.477659-21.581455-62.008543-21.581455-95.486522 0-54.007903 19.370886-104.75166 53.270705-144.23063h-97.381733l-1.263474-3.579503c-35.794007 39.900811-56.429392 92.117939-56.429392 147.810133 0 33.373542 7.474363 65.903403 21.581455 95.486522 10.843969 22.529573 33.583439 36.847585 58.5345 36.847585h101.803894c-24.951061-0.001024-47.690531-14.319036-58.5345-36.847585z" fill="#90BC42" /><path d="M702.716048 587.220759l-1.263475 3.579503H369.827379c18.107412-21.055178 40.321628-38.847233 65.904427-52.218151 41.479642-21.581455 67.272337-64.009215 67.272338-110.541732V246.542371h69.482905v181.499032c0 46.532516 25.792695 88.959253 67.272338 110.541732 24.319324 12.632697 45.479962 29.161278 62.956661 48.637624z" fill="#A3E3E5" /><path d="M619.862223 164.214824c22.740493 0 41.163262 18.423793 41.163262 41.163262a41.05473 41.05473 0 0 1-12.001984 29.056841c-7.474363 7.474363-17.686595 12.001984-29.056841 12.001984H456.155247c-6.738189 0-13.369895-1.158014-19.476347-3.368583-6.210888-2.210568-12.107444-5.580175-17.265778-9.790391l-34.531557-28.636025c-16.423121-13.580815-6.842626-40.427088 14.527909-40.427088h203.606764 16.845985z" fill="#7ECFE8" /><path d="M509.320492 233.276913l-34.531556-28.636025c-16.423121-13.580815-6.842626-40.427088 14.527909-40.427088H399.199578c-21.371558 0-31.05649 26.740813-14.527909 40.427088l34.531556 28.636025c5.158334 4.316701 10.948406 7.579823 17.265778 9.790391a58.296959 58.296959 0 0 0 19.476347 3.368583h90.117267c-6.738189 0-13.369895-1.158014-19.476347-3.368583-6.317372-2.210568-12.107444-5.473691-17.265778-9.790391z" fill="#69C2D6" /><path d="M614.598429 79.044971l-11.686627 85.169853H472.893724l-11.685603-85.169853z" fill="#F7B239" /><path d="M461.208121 79.044971l11.685603 85.169853h58.850881l-11.791064-85.169853z" fill="#E09B2D" /><path d="M503.10858 246.542371v181.499032c0 46.532516-25.792695 88.959253-67.272338 110.541732-25.582799 13.369895-47.901451 31.16195-65.903402 52.218151-33.899819 39.47897-53.270706 90.222727-53.270706 144.23063 0 25.160958 4.21124 49.796663 12.31734 73.062409-15.05521 1.263474-29.056842 5.580175-40.742445 12.211881-4.737517-2.632409-9.895852-4.948438-15.265106-6.842626l0.10546-0.21092c-7.264466-24.845601-11.159326-50.954677-11.159326-78.116307 0-106.541411 60.324252-199.080167 148.757227-245.086407 23.16131-12.001984 37.794679-35.794007 37.794679-61.903082V246.542371h7.685284 46.953333z" fill="#99E2FF" /><path d="M399.620395 828.412306c9.685955 7.896204 16.949398 17.581135 20.950741 28.319644 1.368935 3.474043 2.316029 7.159006 2.947766 10.843969 0.420817 2.842306 0.737197 5.790072 0.737197 8.737838 0 17.475675-8.21156 33.477978-21.792375 45.585422-15.791383 14.107092-38.847233 23.05585-64.430032 23.05585-18.529253 0-35.689571-4.632057-49.796663-12.528261 22.003296-12.422801 36.425744-32.846241 36.425745-56.007551 0-23.16131-14.423473-43.584751-36.425745-56.007551 11.791063-6.632729 25.688259-10.948406 40.742445-12.21188 2.947766-0.315357 6.000992-0.420817 8.948758-0.420817 24.213864-0.001024 46.006239 7.89518 61.692163 20.633337z" fill="#9AD14B" /><path d="M288.237029 932.321308c-14.107092 7.896204-31.26741 12.633721-49.796662 12.633721-47.58507 0-86.222407-30.741133-86.222407-68.535812s38.637337-68.535812 86.222407-68.535812c12.21188 0 23.898507 2.000672 34.426096 5.684611 5.369255 1.895212 10.527589 4.21124 15.265106 6.842626 22.003296 12.422801 36.425744 32.846241 36.425745 56.007551 0 23.162334-14.316988 43.480314-36.320285 55.903115z" fill="#9AD14B" /><path d="M210.96338 876.313757c0-29.688579 23.687587-54.849537 56.744749-64.430032-9.158654-2.632409-19.05553-4.10578-29.372199-4.10578-47.58507 0-86.222407 30.741133-86.222407 68.535812s38.637337 68.535812 86.222407 68.535812c10.317692 0 20.108084-1.474395 29.266739-4.10578-32.951701-9.580495-56.639288-34.846913-56.639289-64.430032z" fill="#90BC42" /><path d="M515.953221 787.775321c-35.794007 44.427408-74.747724 62.219463-95.486521 68.956629-4.00032-10.738509-11.264786-20.423441-20.950742-28.319644 0.526277-0.737197 11.791063-16.107764 19.897164-44.111028 48.533188-10.94943 96.5401 3.474043 96.540099 3.474043z" fill="#7EA33E" /><path d="M426.151311 698.920505c3.790423 35.163294-0.526277 63.903755-6.738189 85.379749-8.1061 28.004288-19.265426 43.374854-19.897164 44.111028-15.685923-12.738157-37.479322-20.634361-61.693186-20.634361 13.475355-68.640248 88.328539-108.856416 88.328539-108.856416z" fill="#7EA33E" /><path d="M699.557362 820.095285c-2.000672 0-4.00032-0.420817-5.895532-1.263474a14.666133 14.666133 0 0 1-7.579823-19.370887c8.843298-20.319004 13.369895-42.005919 13.369894-64.430031 0-60.535172-33.373542-115.490169-87.065064-143.493433-25.371878-13.265458-47.586094-32.319964-64.324572-55.375814-4.737517-6.527269-3.368583-15.791383 3.263123-20.528901 6.527269-4.737517 15.791383-3.368583 20.5289 3.263123 14.001632 19.265426 32.741805 35.37319 54.11234 46.532516 63.482938 33.057162 102.856448 98.01347 102.856448 169.497048 0 26.529893-5.369255 52.112691-15.791384 76.221096-2.420465 5.685635-7.78972 8.948758-13.47433 8.948757zM830.312637 514.895548c-0.526277 0-0.947094 0-1.474395-0.10546-8.1061-0.842658-14.001632-8.00064-13.159998-16.107764 0.420817-3.790423 0.631737-7.685283 0.631737-11.475707 0-46.848897-29.583119-88.959253-73.694146-104.961556-7.579823-2.736845-11.580143-11.159326-8.843298-18.84461 2.736845-7.579823 11.159326-11.580143 18.84461-8.843297 55.692194 20.213544 93.066057 73.48425 93.066056 132.650487 0 4.842978-0.21092 9.685955-0.737197 14.527909-0.737197 7.579823-7.159006 13.159998-14.633369 13.159998zM279.499192 890.947126c-7.790743 0-14.107092-6.000992-14.633369-13.580815-1.578831-2.632409-10.212232-9.895852-26.529893-9.895852-8.1061 0-14.738829-6.527269-14.738829-14.738829 0-8.1061 6.527269-14.738829 14.738829-14.738829 33.373542 0 55.797655 19.792727 55.797655 38.215496 0.104436 8.21156-6.422833 14.738829-14.634393 14.738829z m-14.423472-13.264434z m-0.210921-1.368935zM379.091494 890.947126c-7.790743 0-14.107092-6.000992-14.633369-13.580815-0.947094-1.474395-4.842978-5.684611-13.580815-8.21156-7.790743-2.210568-12.31734-10.422129-10.001312-18.212872 2.210568-7.790743 10.422129-12.31734 18.212872-10.001312 20.423441 5.895532 34.741453 20.423441 34.741453 35.26773-0.10546 8.21156-6.632729 14.738829-14.738829 14.738829z m-14.738829-14.633369z" fill="#FFFFFF" /><path d="M704.505799 363.926728m-14.738829 0a14.738829 14.738829 0 1 0 29.477659 0 14.738829 14.738829 0 1 0-29.477659 0Z" fill="#FFFFFF" /><path d="M537.429216 487.206617m-14.738829 0a14.738829 14.738829 0 1 0 29.477658 0 14.738829 14.738829 0 1 0-29.477658 0Z" fill="#FFFFFF" /><path d="M619.335946 204.430992m-14.738829 0a14.738829 14.738829 0 1 0 29.477659 0 14.738829 14.738829 0 1 0-29.477659 0Z" fill="#FFFFFF" /><path d="M886.846465 487.206617c0-100.434959-81.69581-182.130769-182.130769-182.130769-21.266098 0-42.532196 3.790423-62.42936 11.053865v-59.587054c19.687267-8.632377 33.477978-28.319644 33.477978-51.164573 0-30.741133-25.056522-55.797655-55.797654-55.797655h-0.10546l9.475034-68.535812c0.631737-4.21124-0.737197-8.422481-3.474043-11.685603-2.736845-3.158686-6.842626-5.052874-11.053866-5.052874H461.208121c-4.21124 0-8.31702 1.789752-11.053866 5.052874-2.736845 3.158686-4.10578 7.474363-3.474043 11.685603l9.475035 68.535812h-56.850209c-16.002304 0-29.898475 9.685955-35.26773 24.845601-5.474715 15.05521-0.947094 31.37287 11.370246 41.585103l34.531557 28.636025c7.053546 5.895532 15.159646 10.212232 23.793047 13.054537v170.445167c0 20.528901-11.475707 39.269074-29.898475 48.848545-96.64556 50.32294-156.653431 149.283504-156.653431 258.140944 0 19.897164 2.000672 39.584431 6.000992 58.849857-4.737517-0.526277-9.685955-0.842658-14.633369-0.842658-55.586734 0-100.855776 37.373862-100.855777 83.274641 0 45.900779 45.269042 83.274641 100.855777 83.274641 18.002976 0 34.952373-4.00032 49.691202-10.843969 15.159646 7.053546 32.215528 10.843969 49.902123 10.843969 26.635353 0 50.954677-8.632377 69.062089-22.635032H688.084727c43.795671 0 84.011839-23.687587 104.961556-61.797623 23.476667-42.637657 35.899467-91.065385 35.899467-140.01939 0-34.426096-5.895532-68.009535-17.686595-100.014142 47.478586-34.425072 75.58731-88.853792 75.58731-148.02003z m-253.719807 64.430032c13.265458 6.948086 25.582799 15.159646 36.847585 24.530244H405.726847c11.264786-9.369575 23.582127-17.581135 36.847585-24.530244 46.427056-24.108404 75.168541-71.483578 75.168541-123.59627V261.17574h40.110707v166.865663c0.104436 52.111667 28.951381 99.486841 75.272978 123.595246z m-202.23783 245.402787c21.160638-3.474043 41.900459-2.105108 57.060106 0-22.318652 22.213192-44.321948 34.531556-60.324252 41.268721-2.736845-4.316701-5.790072-8.422481-9.369575-12.31734 3.7894-6.737165 8.422481-16.423121 12.633721-28.951381z m-28.109747-8.632378c-2.632409 7.790743-5.474715 14.212552-8.00064 19.16099-11.264786-6.316349-24.002944-10.843969-37.900139-13.054538 11.791063-31.47833 37.689219-55.375814 56.007551-69.167549-0.10546 27.266066-5.158334 48.637625-10.106772 63.061097z m124.648823 8.632378c3.053226-3.790423 4.00032-8.843298 2.632409-13.580815-1.474395-4.632057-5.158334-8.31702-9.790391-9.685956-1.789752-0.526277-38.637337-11.370247-81.59035-7.264466 3.474043-19.370886 4.948438-42.532196 2.105108-69.062089-0.526277-4.842978-3.474043-9.159678-7.790743-11.475707a14.556578 14.556578 0 0 0-13.791736 0c-2.736845 1.474395-58.42904 31.899147-84.643576 86.011487a206.210504 206.210504 0 0 1-3.368582-36.952021c0-48.112371 16.528581-93.486873 45.479962-129.491801h322.150159c29.056842 36.004927 45.479962 81.37943 45.479962 129.491801 0 31.16195-6.738189 61.166909-20.213544 89.170173-8.31702 17.371238-26.109076 28.530565-45.374502 28.530564H464.155887c19.476347-11.684579 42.005919-29.265714 63.272017-55.69117z m-49.374822-703.255636h119.700386l-7.685284 55.797655H485.738365l-7.685283-55.797655z m-84.011839 99.593326c-4.00032-3.263123-3.053226-7.369927-2.421488-9.054218 0.631737-1.578831 2.526949-5.369255 7.685283-5.369255h220.662646c14.527909 0 26.424432 11.896524 26.424432 26.424433s-11.896524 26.424432-26.424432 26.424432H455.944326c-10.001312 0-19.687267-3.474043-27.37255-9.895852l-34.530533-28.52954zM276.445966 735.030893c0-97.90801 54.007903-186.762827 140.862048-232.031869 28.214184-14.633369 45.690883-43.374854 45.690882-74.957621V261.17574h25.477339v166.865663c0 41.058825-22.740493 78.431664-59.377158 97.487194-78.431664 40.847905-127.175772 121.06932-127.175772 209.503319 0 20.739821 2.736845 41.268722 8.1061 61.271346-7.579823 1.789752-14.94975 4.316701-21.897836 7.579823a68.491785 68.491785 0 0 1-2.736845-1.263474c-6.000992-22.003296-8.948758-44.638329-8.948758-67.588718zM166.956789 876.313757c0-29.688579 32.110068-53.902443 71.483578-53.902443s71.483578 24.213864 71.483578 53.902443c0 29.688579-32.110068 53.902443-71.483578 53.902443s-71.483578-24.213864-71.483578-53.902443z m170.971443 53.796983c-7.053546 0-13.897196-0.842658-20.423441-2.316029 13.580815-14.212552 21.792375-32.110068 21.792376-51.586414s-8.21156-37.373862-21.792376-51.586415c6.527269-1.474395 13.369895-2.316029 20.423441-2.316028 39.37351 0 71.483578 24.213864 71.483578 53.902443s-32.004607 53.902443-71.483578 53.902443z m447.43072-313.095942c-6.106452 3.790423-8.527941 11.475707-5.790072 18.107412 13.159998 31.793687 19.792727 65.377126 19.792727 100.014143 0 44.006591-11.159326 87.591342-32.214503 125.912298-15.791383 28.740461-46.21716 46.637977-79.274322 46.637976H431.415106c3.89486-8.00064 6.421809-16.528581 7.159006-25.477338h240.454349c30.530213 0 58.63996-17.792055 71.799958-45.164606 15.265106-31.899147 23.05585-66.219783 23.05585-101.803894 0-88.328539-48.744109-168.655415-127.175772-209.50332-36.636665-19.05553-59.377158-56.429392-59.377158-97.487193V261.17574h25.477338v77.37911c0 5.158334 2.631385 9.895852 7.053546 12.528261s9.895852 2.842306 14.423473 0.526277c21.897835-11.370247 45.585422-17.160318 70.431024-17.160318 84.222759 0 152.758571 68.535812 152.758571 152.758571-0.001024 53.165245-26.952757 101.592974-72.116339 129.807157z" fill="#333333" /><path d="M704.715696 394.352505c-36.636665 0-70.010207 21.686915-84.853473 55.270353-1.684291 3.790423-1.684291 8.00064-0.10546 11.791064 7.685283 17.792055 21.477019 32.636345 38.741773 41.585102 29.056842 15.159646 54.744077 35.37319 76.432016 60.218792 2.842306 3.263123 6.948086 5.052874 11.053866 5.052874 2.632409 0 5.369255-0.737197 7.790743-2.210569 27.37255-17.160318 43.690211-46.532516 43.690211-78.853504 0.10546-51.164574-41.584079-92.854112-92.749676-92.854112zM747.879629 533.845617c-22.003296-23.05585-47.480634-42.11138-75.800278-56.850208-9.369575-4.842978-17.160318-12.31734-22.424112-21.371559 11.264786-19.581807 32.215528-31.793687 55.060457-31.793687 35.057834 0 63.482938 28.530565 63.482938 63.482938a63.296591 63.296591 0 0 1-20.319005 46.532516z" fill="#333333" /></svg>