<svg xmlns="http://www.w3.org/2000/svg" version="1.1" xmlns:xlink="http://www.w3.org/1999/xlink" xmlns:svgjs="http://svgjs.dev/svgjs" width="2000" height="303" viewBox="0 0 2000 303"><g transform="matrix(1,0,0,1,-1.2121212121212466,0.5501748215350517)"><svg viewBox="0 0 396 60" data-background-color="#ffffff" preserveAspectRatio="xMidYMid meet" height="303" width="2000" xmlns="http://www.w3.org/2000/svg" xmlns:xlink="http://www.w3.org/1999/xlink"><g id="tight-bounds" transform="matrix(1,0,0,1,0.2400000000000091,-0.10894550921486257)"><svg viewBox="0 0 395.52 60.21789101842974" height="60.21789101842974" width="395.52"><g><svg viewBox="0 0 549.8145899965601 83.70923103953147" height="60.21789101842974" width="395.52"><g><rect width="7.51142770454864" height="83.70923103953147" x="127.11973898167474" y="0" fill="#ffffff" opacity="1" stroke-width="0" stroke="transparent" fill-opacity="1" class="rect-yte-0" data-fill-palette-color="primary" rx="1%" id="yte-0" data-palette-color="#6b7280"></rect></g><g transform="matrix(1,0,0,1,154.29458999656015,0.20823191800877794)"><svg viewBox="0 0 395.52 83.29276720351392" height="83.29276720351392" width="395.52"><g id="textblocktransform"><svg viewBox="0 0 395.52 83.29276720351392" height="83.29276720351392" width="395.52" id="textblock"><g><svg viewBox="0 0 395.52 83.29276720351392" height="83.29276720351392" width="395.52"><g transform="matrix(1,0,0,1,0,0)"><svg width="395.52" viewBox="2.8 -42.3 204.89 43.15" height="83.29276720351392" data-palette-color="#6b7280"><path d="M20.9 0.85Q15.05 0.85 10.98-1.73 6.9-4.3 4.85-8.78 2.8-13.25 2.8-18.9L2.8-18.9Q2.8-24.45 4.85-28.9 6.9-33.35 10.98-35.98 15.05-38.6 20.9-38.6L20.9-38.6Q26.7-38.6 30.75-35.98 34.8-33.35 36.88-28.88 38.95-24.4 38.95-18.9L38.95-18.9Q38.95-13.25 36.9-8.78 34.85-4.3 30.78-1.73 26.7 0.85 20.9 0.85L20.9 0.85ZM20.9-3.4Q25-3.4 27.95-5.45 30.9-7.5 32.43-11.05 33.95-14.6 33.95-19.05L33.95-19.05Q33.95-23.35 32.4-26.83 30.85-30.3 27.9-32.33 24.95-34.35 20.9-34.35L20.9-34.35Q16.7-34.35 13.75-32.3 10.8-30.25 9.3-26.75 7.8-23.25 7.8-18.9L7.8-18.9Q7.8-14.45 9.3-10.95 10.8-7.45 13.75-5.43 16.7-3.4 20.9-3.4L20.9-3.4ZM59.45-28.25Q64.55-28.25 67.02-25.55 69.5-22.85 69.5-16.65L69.5-16.65 69.5 0 64.8 0 64.8-16.65Q64.8-20.55 63.47-22.2 62.15-23.85 58.8-23.85L58.8-23.85Q54.9-23.85 51-20.45L51-20.45 51 0 46.3 0 46.3-27.65 51-27.65 51-24.7Q55.1-28.25 59.45-28.25L59.45-28.25ZM103.45-37.9L103.45-33.55 92.05-33.55 92.05 0 87.15 0 87.15-33.55 75.75-33.55 75.75-37.9 103.45-37.9ZM122.99-28.25L124.14-28.25 124.14-23.85 122.99-23.85Q118.69-23.85 114.64-20.4L114.64-20.4 114.64 0 109.94 0 109.94-27.65 114.64-27.65 114.64-24.55Q118.74-28.25 122.99-28.25L122.99-28.25ZM138.64-27.65Q143.04-27.65 145.34-26.18 147.64-24.7 148.39-22.23 149.14-19.75 149.14-16L149.14-16 149.14 0 144.44 0 144.44-2.75Q142.54-0.95 140.64-0.15 138.74 0.65 136.54 0.65L136.54 0.65Q133.94 0.65 131.84-0.48 129.74-1.6 128.52-3.73 127.29-5.85 127.29-8.75L127.29-8.75Q127.29-13.25 130.09-15.73 132.89-18.2 137.64-18.2L137.64-18.2Q141.39-18.2 144.39-16.55L144.39-16.55Q144.34-19 143.89-20.45 143.44-21.9 142.04-22.68 140.64-23.45 137.89-23.45L137.89-23.45 134.19-23.45 134.19-27.65 138.64-27.65ZM137.19-3.4Q138.89-3.4 140.77-4.2 142.64-5 144.44-6.6L144.44-6.6 144.44-12.9Q141.64-14.3 138.34-14.3L138.34-14.3Q135.69-14.3 133.89-13.03 132.09-11.75 132.09-8.75L132.09-8.75Q132.09-5.95 133.62-4.67 135.14-3.4 137.19-3.4L137.19-3.4ZM168.59 0.85Q162.14 0.8 158.66-3.15 155.19-7.1 155.19-13.85L155.19-13.85Q155.19-20.6 158.66-24.5 162.14-28.4 168.59-28.45L168.59-28.45Q170.84-28.45 172.46-28.13 174.09-27.8 175.94-27.05L175.94-27.05 175.94-22.5Q174.14-23.35 172.51-23.7 170.89-24.05 168.94-24.05L168.94-24.05Q164.29-24 162.19-21.28 160.09-18.55 160.09-13.9L160.09-13.9Q160.09-9.15 162.19-6.35 164.29-3.55 168.84-3.5L168.84-3.5Q172.39-3.5 176.59-5.65L176.59-5.65 178.09-1.55Q173.54 0.85 168.59 0.85L168.59 0.85ZM201.99 0L191.89-12.75 188.89-9.7 188.89 0 184.19 0 184.19-42.3 188.89-42.3 188.89-15.65 200.19-27.3 206.09-27.3 195.09-16 207.69 0 201.99 0Z" opacity="1" transform="matrix(1,0,0,1,0,0)" fill="#ffffff" class="wordmark-text-0" data-fill-palette-color="primary" id="text-0"></path></svg></g></svg></g></svg></g></svg></g><g transform="matrix(1,0,0,1,0,0.20823191800877794)"><svg viewBox="0 0 107.45631567133799 83.29276720351392" height="83.29276720351392" width="107.45631567133799"><g><svg xmlns="http://www.w3.org/2000/svg" xmlns:xlink="http://www.w3.org/1999/xlink" version="1.1" x="0" y="0" viewBox="4.823 14.981 90.35499999999999 70.037" enable-background="new 0 0 100 100" xml:space="preserve" height="83.29276720351392" width="107.45631567133799" class="icon-icon-0" data-fill-palette-color="accent" id="icon-0"><path fill="#ffffff" d="M71.611 14.981C61.932 14.981 53.626 20.823 49.997 29.166 46.369 20.823 38.075 14.981 28.396 14.981 15.373 14.981 4.823 25.534 4.823 38.551 4.823 46.306 8.63 53.132 14.403 57.427L49.997 85.018 85.598 57.427C91.378 53.132 95.178 46.306 95.178 38.551 95.178 25.535 84.621 14.981 71.611 14.981M72.329 53.09H59.881L56.426 43.747 48.84 67.1 41.217 50.026 40.455 52.201H27.673V48.643H37.931L40.817 40.402 48.316 57.197 56.208 32.901 62.36 49.532H72.33V53.09z" data-fill-palette-color="accent"></path></svg></g></svg></g></svg></g><defs></defs></svg><rect width="395.52" height="60.21789101842974" fill="none" stroke="none" visibility="hidden"></rect></g></svg></g></svg>